<svg version="1.2" xmlns="http://www.w3.org/2000/svg" viewBox="0 0 720 210" width="720" height="210"><style></style><path  d="m49.9 152.5v-148.6h-4.4l-37.5 26.4v3.3c1.9 0.6 3.7 1.3 5.3 2.2 1.6 0.8 3.1 1.9 4.1 3.4 0.7 0.9 1.1 2 1.4 3.1 0.2 1.1 0.2 2.3 0.2 3.4v104.6l-15.4 9.9 3.3 4.4 8.8-5.5 24.3 20.9 28.6-19.8-3.3-4.4-6.6 5.5zm131.3 2.2l-9.9 6.6-11-11v-57.9l12-9.7-4.1-5-9.3 7.5-33.9-21.8-25.3 13.2c-2.7 1.4-5.3 2.9-7.6 4.9-2.1 1.8-3.9 4.1-5.1 6.6-1.2 2.6-1.8 5.5-1.6 8.3 0.2 3 1.3 6 2.9 8.6 3.2 4.9 8.1 8.3 13.4 10.8 1.1 0.5 2.2 1 3.4 1.5-5.4 2.8-10.5 6.2-15.1 10.2-3.2 2.8-6.2 6.1-8.4 9.8-2.2 3.7-3.7 7.9-4 12.2-0.4 6.7 2.2 13.3 6.4 18.5 6.1 7.3 15.1 11.9 24.5 13.2l24.3-17.7 17.5 17.6 32-21.9zm-49.6-35.8c-4.1-1-8.2-2.1-12.3-3.3-4.4-1.4-8.7-2.9-12.9-4.9-4.1-1.9-8.1-4.4-11-7.9-2-2.5-3.3-5.5-3.4-8.7 0-2.3 0.6-4.5 1.7-6.5 1.1-2 2.7-3.7 4.5-5.1 1.5-1.1 3.1-2 4.8-2.7l28.6 17.6c0 7.2 0 14.4 0 21.5zm0 6.7c0 11.6 0 23.3 0 34.9-2.4 0.8-5.1 1-7.6 0.5-3.3-0.6-6.3-2.2-8.8-4.4-2.5-2.2-4.5-4.9-6-7.8-3.3-6.2-4.8-13.5-3.7-20.4 0.6-3.4 1.8-6.7 3.6-9.7 3 1 6 1.9 9 2.8 4.5 1.4 9 2.7 13.5 4.1zm63.4-25.4c-0.8 4.3-0.5 8.7 1 12.8h5.3c0-0.3 0-0.5 0-0.8 0-2.3 0.7-4.6 2.2-6.4 0.9-0.9 1.9-1.6 3-2.1 1.2-0.5 2.4-0.8 3.6-0.9 2.5-0.3 7.4-0.2 7.4-0.2 1.4 0 2.7 0 4 0v43c-13.6 7-25.1 17.9-32.5 31.2h5.3c7.3-7.9 16.8-13.7 27.2-16.6v38.8 6.5h32.2 14.4v-6.5-32.5c3.2 1.9 6.2 4.1 8.9 6.6l60.3-32.5v-107.4c-3.8-5.4-8.1-10.4-12.7-15-4.9-4.8-10.2-9.2-15.8-13.1l-40.7 29.7v-24.2h-6.6v29l-7.8 5.7v-4.1c0-3.6 0-7.2-0.7-10.7-0.7-3.5-2.1-6.9-4.1-9.8-2.1-2.9-4.8-5.4-8-7.1-3.1-1.7-6.6-2.8-10.1-3.2-5.8-0.6-11.6 0.4-16.9 2.8-5.2 2.4-9.7 6.3-12.9 11.1-2.8 4.4-4.5 9.5-4.7 14.7h5.5c0.4-1.9 1.1-3.7 2.1-5.4 1.5-2.4 3.8-4.5 6.6-5.3 1.4-0.4 2.9-0.4 4.3 0 1.4 0.3 2.7 1.1 3.7 2.1 1.4 1.4 2.2 3.3 2.6 5.3 0.4 2 0.4 4 0.4 6v38c-4.1-0.2-8.1 0.5-11.8 2.2-3.8 1.6-7.1 4.1-9.7 7.3-2.5 3.2-4.3 7-5 11zm73.1-15.1c0-14.4 0-28.7 0-43.1l18.3-13c3.7 2.7 7.1 5.5 10.5 8.4 3.9 3.5 7.6 7.2 11.1 11.2v16.4zm0 7.3l39.9-20.1v16.7l-39.9 20.2zm0 24.1l39.9-20.2v52.4l-5 3c-10.2-7.5-22.3-12.4-34.9-14.2zm-6.6-70c0 30.1 0 60.2 0 90.3-2.6-0.1-5.2-0.2-7.7-0.1v-84.7zm0 116.4c0 12 0 24 0 36h-7.8v-38.8c2.6 0.7 5.2 1.7 7.8 2.8zm148.5-9.5l-9.9 6.6-7.7-7.7v-69.3l-17.6-21-30.9 21 3.3 4.4 8.9-5.5 7.7 9.9v60.5l-14.4 9.9 3.4 4.4 7.7-5.5 22 19.8 33-23.1zm-53.6-122.3l19.6 22.3 21.9-19.3-19.6-22.3zm82.1 118c9.3-2.8 19-4 28.7-3.3 11.1 0.7 22 3.7 31.9 8.8l6.6-7.7 3.3 2.2-24.2 29.7c-6.6-2.9-13.3-5.2-20.3-6.8-9.4-2.1-19.3-2.8-28.7-0.7-6.6 1.5-12.9 4.5-18.2 8.6l-2.2-2.2c1.7-5.6 3.9-11 6.6-16.2 5.9-11.4 13.9-21.5 22.2-31.2h-15.5l-5.6 5.6-3.3-3.3 18.7-22.1h23.3c5.1-5.8 10.3-11.6 15.3-17.6-9 2.8-18.4 3.8-27.7 3-8-0.8-15.8-2.9-23-6.3l-5.5 8.8-4.4-2.2 17.6-33c6.1 2.4 12.3 4.4 18.7 5.9 8.8 2.2 18 3.4 27.1 2.3 8-0.9 15.8-3.7 22.5-8.2l2.2 3.3c-5.8 10.3-12.7 20-20.2 29.1-4.2 5-8.5 10-12.9 14.9h16.8l5.3-5.5 3.3 3.3-18.7 22h-24.2c-2.8 3.4-5.7 6.7-8.5 10.2zm93.5 0c9.3-2.8 19-4 28.6-3.3 11.1 0.7 22.1 3.7 32 8.8l6.6-7.7 3.3 2.2-24.2 29.7c-6.6-2.9-13.4-5.2-20.3-6.8-9.4-2.1-19.3-2.8-28.7-0.7-6.6 1.5-12.9 4.4-18.2 8.6l-2.2-2.2c1.7-5.6 3.9-11 6.6-16.2 5.8-11.4 13.8-21.5 22.2-31.2h-15.6l-5.5 5.5-3.3-3.3 18.7-22h23.3c5.1-5.8 10.2-11.6 15.2-17.6-8.9 2.8-18.4 3.8-27.7 2.9-7.9-0.7-15.7-2.8-22.9-6.2l-5.5 8.8-4.4-2.2 17.6-33c6.1 2.4 12.3 4.4 18.7 5.9 8.8 2.2 18 3.4 27.1 2.3 8-0.9 15.8-3.7 22.5-8.2l2.2 3.3c-5.8 10.3-12.7 19.9-20.2 29-4.2 5.1-8.5 10.1-12.9 15h16.7l5.4-5.5 3.3 3.3-18.8 22h-24.1c-2.9 3.4-5.7 6.7-8.5 10.1zm183.2 5.6l-9.9 6.6-11.1-11.1v-57.9l12-9.7-4-5-9.3 7.5-33.9-21.8-25.3 13.2c-2.7 1.4-5.3 2.9-7.6 4.9-2.2 1.8-4 4.1-5.2 6.7-1.2 2.5-1.7 5.4-1.5 8.2 0.2 3.1 1.3 6 2.9 8.6 3.1 4.9 8.1 8.3 13.4 10.8 1.1 0.5 2.2 1 3.4 1.5-5.4 2.8-10.5 6.2-15.1 10.2-3.2 2.9-6.2 6.1-8.4 9.8-2.3 3.7-3.7 7.9-4 12.2-0.4 6.7 2.2 13.4 6.4 18.5 6 7.3 15.1 11.9 24.5 13.2l24.2-17.7 17.6 17.6 31.9-21.9zm-49.5-35.7c-4.1-1-8.3-2.2-12.4-3.4-4.3-1.4-8.7-2.9-12.8-4.9-4.1-1.9-8.1-4.4-11-7.9-2-2.5-3.4-5.5-3.4-8.7-0.1-2.3 0.6-4.5 1.7-6.5 1.1-2 2.7-3.7 4.5-5.1 1.4-1.1 3.1-2 4.8-2.7l28.6 17.6c0 7.2 0 14.4 0 21.6zm0 6.6c0 11.7 0 23.3 0 35-2.5 0.7-5.1 0.9-7.7 0.4-3.2-0.6-6.2-2.2-8.7-4.4-2.5-2.2-4.5-4.9-6-7.8-3.3-6.2-4.8-13.5-3.7-20.4 0.5-3.4 1.8-6.7 3.6-9.7 2.9 1.1 5.9 2 8.9 2.9 4.6 1.3 9.1 2.6 13.6 4z"/></svg>